<svg id="Layer_1" data-name="Layer 1" xmlns="http://www.w3.org/2000/svg" xmlns:xlink="http://www.w3.org/1999/xlink" viewBox="0 0 80 80"><defs><linearGradient id="linear-gradient" x1="37.94" y1="48.36" x2="44.19" y2="29.6" gradientUnits="userSpaceOnUse"><stop offset="0" stop-color="#288210"/><stop offset="1" stop-color="#35ac16"/></linearGradient><linearGradient id="linear-gradient-2" x1="15.26" y1="58.36" x2="23.98" y2="51.76" xlink:href="#linear-gradient"/><linearGradient id="linear-gradient-3" x1="20.36" y1="53.46" x2="34.8" y2="42.63" xlink:href="#linear-gradient"/><linearGradient id="linear-gradient-4" x1="45.14" y1="34.8" x2="47.78" y2="17.71" xlink:href="#linear-gradient"/></defs><title>Social Media Icons Free Vector Pack - Scene 13</title><path d="M57.87,24.41c-7-7-23.78-7-33.58,0S15.9,43.3,19.4,48.89L16.9,60.57a.22.22,0,0,0,.35.22l9.14-7c3.5,2.1,16.09,7,28,0S64.86,31.41,57.87,24.41ZM50.29,43.15c-5,4.35-10.8,4.2-16.2.15a13.8,13.8,0,0,1-5.37-8.08,3.66,3.66,0,0,1,.53-2.86l1-1.55a2.15,2.15,0,0,1,2.91-.66c.26.15.56.33.89.56A7.56,7.56,0,0,1,36.31,33a2.22,2.22,0,0,1,.08,2.15L35.48,37c-.7,1.4-.7,2.8,2.1,4.2a5,5,0,0,0,4.9,0l2.23-1.78a2,2,0,0,1,2.5,0l3.07,2.63A.7.7,0,0,1,50.29,43.15Z" fill="#35ac16"/><path d="M54.38,53.79c-11.9,7-24.49,2.1-28,0l-9.14,7a.22.22,0,0,1-.35-.22l2.5-11.68c-3.5-5.59-4.9-17.48,4.89-24.48s26.58-7,33.58,0S66.27,46.8,54.38,53.79Z" fill="#35ac16"/><path d="M60.25,48.33a59.72,59.72,0,0,1-13.79,1.05c-7.74-.13-11.54-5.83-15.43-11.5-.58-.84-8.44-12.09-8.53-12a20.17,20.17,0,0,1,1.79-1.45,26.14,26.14,0,0,1,6-3.15C34.88,26.1,42.81,28.77,53,28.17c5.11-.3,7.9,1.81,9.44,4.26A19.18,19.18,0,0,1,60.25,48.33Z" fill="url(#linear-gradient)"/><path d="M50.29,43.15c-5,4.35-10.81,4.2-16.21.15a13.82,13.82,0,0,1-5.36-8.08,3.71,3.71,0,0,1,.53-2.86l1-1.55a2.14,2.14,0,0,1,2.91-.66c.26.15.56.34.88.56A7.5,7.5,0,0,1,36.31,33a2.25,2.25,0,0,1,.08,2.15L35.48,37c-.7,1.4-.7,2.8,2.1,4.2a5,5,0,0,0,4.9,0l2.23-1.78a1.94,1.94,0,0,1,2.49,0l3.08,2.63A.7.7,0,0,1,50.29,43.15Z" fill="#fff"/><path d="M36,57a29.1,29.1,0,0,1-9.61-3.24l-9.14,7a.22.22,0,0,1-.35-.22l2.5-11.68a17.68,17.68,0,0,1-2.31-6.28C23,42.72,32,45,36,57Z" fill="url(#linear-gradient-2)"/><path d="M60.25,48.33a18,18,0,0,1-5.87,5.46A27.3,27.3,0,0,1,36,57C32,45,23,42.72,17.09,42.61A17.91,17.91,0,0,1,22.5,25.86a57.73,57.73,0,0,1,6.15,8.7,3,3,0,0,0,.07.66,13.82,13.82,0,0,0,5.36,8.08c.51.37,1,.72,1.52,1h0a14.91,14.91,0,0,0,10.85,5.05A59.72,59.72,0,0,0,60.25,48.33Z" fill="url(#linear-gradient-3)"/><path d="M62.42,32.43C60.88,30,58.09,27.87,53,28.17c-10.17.6-18.1-2.07-22.66-6.91,9.62-3.61,21.84-2.56,27.55,3.15A18.58,18.58,0,0,1,62.42,32.43Z" fill="url(#linear-gradient-4)"/></svg>