<svg id="Layer_1" data-name="Layer 1" xmlns="http://www.w3.org/2000/svg" xmlns:xlink="http://www.w3.org/1999/xlink" viewBox="0 0 80 80"><defs><linearGradient id="linear-gradient" x1="30.8" y1="17.06" x2="39.29" y2="34.93" gradientUnits="userSpaceOnUse"><stop offset="0.17" stop-color="#4d75d6"/><stop offset="0.49" stop-color="#314a87"/><stop offset="0.63" stop-color="#2b4177"/><stop offset="0.86" stop-color="#233561"/></linearGradient><linearGradient id="linear-gradient-2" x1="38.99" y1="29.5" x2="41.51" y2="55.67" xlink:href="#linear-gradient"/><linearGradient id="linear-gradient-3" x1="36.69" y1="20.28" x2="41.57" y2="42.48" xlink:href="#linear-gradient"/><linearGradient id="linear-gradient-4" x1="41.01" y1="40.54" x2="41.19" y2="70.32" xlink:href="#linear-gradient"/></defs><title>Social Media Icons Free Vector Pack - Scene 2</title><circle cx="40" cy="40" r="21.96" fill="#314a87"/><path d="M50.75,26v6.54a1.08,1.08,0,0,1-1.08,1.08H46.56a3.26,3.26,0,0,0-3.15,2.62A22.1,22.1,0,0,0,42.89,40h3.55a.59.59,0,0,1,.6.64c-.11,1.38-.46,4.57-1.27,5.38a16.86,16.86,0,0,1-3.93.79l.48,15.07A19.8,19.8,0,0,1,40,62a22.15,22.15,0,0,1-4.92-.56c.47-5.65.47-12.11.47-14.64h-3a.85.85,0,0,1-.84-.69c-.17-.86-.47-2.43-.78-4.26a.87.87,0,0,1,.68-1,23,23,0,0,1,3.9-.35s-.52-7.34,2.1-11.54,10-3.66,10-3.66H50A.76.76,0,0,1,50.75,26Z" fill="#314a87"/><path d="M47.77,19.45c-3.2.53-6.2,2.84-11.68,5.45-7.82,3.73-11.36,5.44-15.29,4.43a22,22,0,0,1,27-9.88Z" fill="url(#linear-gradient)"/><path d="M62,40A21.77,21.77,0,0,1,60,49c-7.24-6.27-11.49-6.36-18.84-4.84-7,1.47-15.79,6.57-19.08,8.58A21.77,21.77,0,0,1,18,40a22.23,22.23,0,0,1,.49-4.65c7.06,2.38,18.36.09,27.89-1.87a21.51,21.51,0,0,1,15.15,2.38A21.69,21.69,0,0,1,62,40Z" fill="url(#linear-gradient-2)"/><path d="M61.57,35.86a21.51,21.51,0,0,0-15.15-2.38c-9.53,2-20.83,4.25-27.89,1.87a21.51,21.51,0,0,1,2.27-6c3.93,1,7.47-.7,15.29-4.43,5.48-2.61,8.48-4.92,11.68-5.45A22,22,0,0,1,61.57,35.86Z" fill="url(#linear-gradient-3)"/><path d="M60,49a22,22,0,0,1-37.92,3.74c3.29-2,12-7.11,19.08-8.58C48.54,42.63,52.79,42.72,60,49Z" fill="url(#linear-gradient-4)"/><path d="M50.75,26v6.54a1.08,1.08,0,0,1-1.08,1.08H46.56a3.26,3.26,0,0,0-3.15,2.62A22.1,22.1,0,0,0,42.89,40h3.55a.59.59,0,0,1,.6.64c-.11,1.38-.46,4.57-1.27,5.38a16.86,16.86,0,0,1-3.93.79l.48,15.07A19.8,19.8,0,0,1,40,62a22.15,22.15,0,0,1-4.92-.56c.47-5.65.47-12.11.47-14.64h-3a.85.85,0,0,1-.84-.69c-.17-.86-.47-2.43-.78-4.26a.87.87,0,0,1,.68-1,23,23,0,0,1,3.9-.35s-.52-7.34,2.1-11.54,10-3.66,10-3.66H50A.76.76,0,0,1,50.75,26Z" fill="#fff"/></svg>