<svg id="Layer_1" data-name="Layer 1" xmlns="http://www.w3.org/2000/svg" xmlns:xlink="http://www.w3.org/1999/xlink" viewBox="0 0 80 80"><defs><linearGradient id="linear-gradient" x1="41.07" y1="14.69" x2="40.81" y2="33.46" gradientUnits="userSpaceOnUse"><stop offset="0" stop-color="#fb5001"/><stop offset="1" stop-color="#9d009f"/></linearGradient><linearGradient id="linear-gradient-2" x1="37.86" y1="39.31" x2="43.26" y2="60.01" xlink:href="#linear-gradient"/><linearGradient id="linear-gradient-3" x1="40.22" y1="21.79" x2="39.7" y2="47.76" xlink:href="#linear-gradient"/></defs><title>Social Media Icons Free Vector Pack - Scene 4</title><path d="M60.2,53.07c-.41,5-2.49,5.85-8.16,6.2S30,59.22,25,58.82s-4.78-8.24-5.49-19.58-.43-12.41,2.58-15.82c2-2.26,6.27-1.81,17.63-2.52a95.46,95.46,0,0,1,13.51-.13c6.43.31,7.36,3.82,7.57,7.36S60.59,48.07,60.2,53.07Z" fill="#314a87"/><path d="M60.82,30.34c-3.55-1.71-8.83-2.49-16.6-.51C30.87,33.25,23.94,29.6,21,24.74c.32-.42.68-.85,1.09-1.32,2-2.26,6.27-1.81,17.63-2.52a95.46,95.46,0,0,1,13.51-.13c6.43.31,7.36,3.82,7.57,7.36C60.8,28.63,60.82,29.39,60.82,30.34Z" fill="url(#linear-gradient)"/><path d="M60.54,46.16c-.1,2.89-.22,5.41-.34,6.91-.41,5-2.49,5.85-8.16,6.2S30,59.22,25,58.82c-2.33-.19-3.52-2-4.2-5,6.07.18,11.09-1.53,22.11-6.58A22.87,22.87,0,0,1,60.54,46.16Z" fill="url(#linear-gradient-2)"/><path d="M60.54,46.16a22.87,22.87,0,0,0-17.66,1.07c-11,5.05-16,6.76-22.11,6.58-.8-3.45-.91-8.51-1.29-14.57C18.89,29.46,19,27.32,21,24.74c3,4.86,9.9,8.51,23.25,5.09,7.77-2,13.05-1.2,16.6.51C60.86,34.09,60.73,40.77,60.54,46.16Z" fill="url(#linear-gradient-3)"/><path d="M43.21,32.46c-5.39-2-10.83,1.53-12.73,6.7s.64,9.45,6,11.42,11.54-1.31,13.42-6.47S48.59,34.43,43.21,32.46Zm4.08,11a7.87,7.87,0,0,1-9.78,4.71c-3.92-1.43-5.76-4.55-4.38-8.31s5.34-6.32,9.26-4.88S48.66,39.67,47.29,43.43Z" fill="#fff"/><path d="M56.25,28.7a2.54,2.54,0,0,1-2.63,2.84c-1.69,0-3.27-.93-3.27-2.62s.93-3.06,2.62-3.06A3.08,3.08,0,0,1,56.25,28.7Z" fill="#fff"/></svg>