<svg id="Layer_1" data-name="Layer 1" xmlns="http://www.w3.org/2000/svg" xmlns:xlink="http://www.w3.org/1999/xlink" viewBox="0 0 80 80"><defs><linearGradient id="linear-gradient" x1="19.16" y1="40" x2="60.83" y2="40" gradientUnits="userSpaceOnUse"><stop offset="0" stop-color="#2495c9"/><stop offset="0.89" stop-color="#5acaf4"/></linearGradient><linearGradient id="linear-gradient-2" x1="40.59" y1="31.04" x2="37.69" y2="14.27" xlink:href="#linear-gradient"/><linearGradient id="linear-gradient-3" x1="41.95" y1="62.01" x2="39.82" y2="38.68" xlink:href="#linear-gradient"/><linearGradient id="linear-gradient-4" x1="40.3" y1="45.7" x2="39.91" y2="27" xlink:href="#linear-gradient"/><linearGradient id="linear-gradient-5" x1="50.96" y1="59.93" x2="50.38" y2="48.75" xlink:href="#linear-gradient"/></defs><title>Social Media Icons Free Vector Pack - Scene 11</title><path d="M60.19,53.07c-.41,5-2.49,5.84-8.16,6.19S30,59.21,25,58.81s-4.78-8.23-5.49-19.57-.42-12.4,2.58-15.81c2-2.26,6.27-1.81,17.63-2.52a95.46,95.46,0,0,1,13.51-.13c6.42.31,7.35,3.82,7.57,7.35S60.59,48.07,60.19,53.07Z" fill="url(#linear-gradient)"/><path d="M59.34,23.28c-3.68-2.11-8.85-1.11-16,2.58-8.89,4.57-15.55,6.73-23.56,1a10.15,10.15,0,0,1,2.29-3.45c2-2.27,6.27-1.82,17.62-2.52a95.46,95.46,0,0,1,13.51-.13C56.44,20.94,58.28,21.9,59.34,23.28Z" fill="url(#linear-gradient-2)"/><path d="M60.69,40.84c-.09,3.73-.22,7.5-.36,10.12a13.32,13.32,0,0,0-10.24-.46c-6.19,2.28-8.29,6.4-9,8.87C34.78,59.28,27.92,59,25,58.81c-4.52-.36-4.77-6.81-5.31-16.44,6.66,3.71,16.29,8.08,23.09,2.5C49.08,39.7,56.66,40.11,60.69,40.84Z" fill="url(#linear-gradient-3)"/><path d="M60.69,40.84c-4-.73-11.61-1.14-17.93,4-6.8,5.58-16.43,1.21-23.09-2.5-.05-1-.11-2.06-.18-3.13-.44-7.15-.5-10.22.29-12.36,8,5.71,14.67,3.55,23.56-1,7.15-3.69,12.32-4.69,16-2.58a8.67,8.67,0,0,1,1.43,4.85C60.89,30,60.83,35.4,60.69,40.84Z" fill="url(#linear-gradient-4)"/><path d="M60.33,51c0,.83-.09,1.53-.14,2.1-.41,5-2.49,5.85-8.16,6.2-2.34.15-6.5.17-10.93.11.7-2.47,2.8-6.59,9-8.87A13.32,13.32,0,0,1,60.33,51Z" fill="url(#linear-gradient-5)"/><path d="M39,34.66c0-2,.79-4.78,4.78-5.58s6.37,2.79,6.37,2.79,2.39.4,2.79.4.4.4-.4,1.19a16.14,16.14,0,0,0-1.59,2s1.59,6.37-2,10.76A13.62,13.62,0,0,1,35,50.6c-4.78-1.2-6-4-6-4s3.18,2,8.36.4a9.6,9.6,0,0,1-5.58-1.19c-2.78-1.6-2.78-3.19-2-3.19a6.1,6.1,0,0,1-1.59-4c0-2.39.4-2,1.19-1.19,0,0-.79-2.39,0-3.59s.8-.4,1.6.8c0,0-.4-2,.4-2.39s.79.4,2,1.19c0,0-.8-1.59,0-1.59s1.66,1.43,2.79,2A6.85,6.85,0,0,0,39,34.66Z" fill="#fff"/></svg>